<svg class="engineering-organic" xmlns="http://www.w3.org/2000/svg" xmlns:xlink="http://www.w3.org/1999/xlink" viewBox="0 0 276.1 276.93">
                    <defs>
                    <linearGradient id="eng-org" x1="47.5" y1="202.65" x2="223.06" y2="-11.53" gradientTransform="translate(303.25 126.61) rotate(140.66)" gradientUnits="userSpaceOnUse">
                    <stop offset="0" stop-color="#fad961"></stop>
                    <stop offset="1" stop-color="#f76b1c"></stop>
                    </linearGradient>
                    </defs>
                    <path d="M255.4,248l-7.9,6.48a6,6,0,0,0-.73.38,100.55,100.55,0,0,1-23.38,11.75c-18.2,6.56-37.1,9.4-56.34,10.18a244.39,244.39,0,0,1-51-3.3c-18.95-3.23-37.27-8.49-54.62-16.89A126.23,126.23,0,0,1,32,237.27c-2-1.81-4-3.74-5.95-5.62L18,221.73c-.74-1.16-1.5-2.32-2.23-3.5A100,100,0,0,1,2.39,183.65c-3.44-17.88-3-35.78.15-53.63a207.89,207.89,0,0,1,32-80.26A145.21,145.21,0,0,1,53.2,26.87c1.71-1.7,3.45-3.36,5.17-5l6.25-5.12c2.13-1.43,4.21-2.93,6.39-4.29C90,.52,110.43-2.71,132.21,2.22c15.47,3.5,29.39,10.46,42.41,19.35a206.43,206.43,0,0,1,35.1,30.74,43.75,43.75,0,0,0,4,4.33l12.8,15.62a9.43,9.43,0,0,0,.61,1c3,3.87,5.81,7.89,8.58,11.95a277.76,277.76,0,0,1,20.45,35.14c7.94,16.33,14.24,33.23,17.61,51.13,2.45,13,3.2,26.07.91,39.19a67,67,0,0,1-13.84,31.23C259.16,244,257.22,245.93,255.4,248Z" fill="url(#eng-org)"></path>
                    </svg>